<?xml version="1.0" standalone="no"?>
<!DOCTYPE svg PUBLIC "-//W3C//DTD SVG 20010904//EN"
 "http://www.w3.org/TR/2001/REC-SVG-20010904/DTD/svg10.dtd">
<svg version="1.0" xmlns="http://www.w3.org/2000/svg"
 width="1024.000000pt" height="1024.000000pt" viewBox="0 0 1024.000000 1024.000000"
 preserveAspectRatio="xMidYMid meet">

<g transform="translate(0.000000,1024.000000) scale(0.100000,-0.100000)"
fill="#000000" stroke="none">
<path d="M5080 9409 c-92 -18 -167 -88 -222 -208 -28 -61 -22 -155 16 -239 33
-71 77 -114 153 -149 l53 -24 0 -1895 0 -1894 60 0 c55 0 60 2 61 23 1 12 3
690 4 1506 l3 1483 24 23 c14 12 50 61 81 107 53 79 308 358 328 358 6 0 8
-51 7 -121 l-3 -122 -46 -13 c-51 -15 -94 -56 -131 -127 -19 -35 -23 -58 -23
-132 0 -78 4 -97 27 -141 60 -114 139 -166 252 -166 81 0 138 26 196 88 85 92
117 208 85 305 -23 68 -103 152 -163 170 l-41 12 -3 120 c-3 119 3 147 33 147
19 0 90 74 119 124 51 90 187 226 225 226 7 0 18 -14 25 -30 14 -34 73 -90 95
-90 12 0 15 -15 15 -70 0 -68 -1 -70 -27 -75 -109 -22 -167 -111 -166 -251 0
-44 8 -78 28 -122 32 -71 58 -99 112 -117 l38 -13 3 -95 3 -95 -34 -20 c-18
-12 -91 -85 -162 -164 -71 -79 -173 -186 -226 -238 -53 -52 -182 -186 -288
-297 l-192 -202 1 -1053 c0 -579 4 -1056 9 -1061 4 -4 32 -7 62 -5 l54 3 3
1019 2 1019 77 86 c43 47 163 174 268 281 104 107 246 257 315 332 68 75 125
136 126 135 2 -1 5 -324 9 -717 3 -393 8 -722 10 -730 3 -9 -49 -77 -128 -169
-72 -84 -137 -161 -144 -170 -9 -12 -9 -149 0 -616 l12 -600 63 -3 62 -3 1 53
c1 29 0 292 -1 583 -2 491 -1 532 15 545 10 8 51 55 93 105 41 49 161 178 266
285 105 108 201 208 213 223 22 27 23 28 125 25 l102 -3 18 -50 c37 -105 96
-145 213 -145 155 1 258 95 257 237 -1 111 -63 208 -154 239 l-33 11 -3 151
-3 152 53 0 c29 0 83 -3 121 -7 54 -5 67 -9 67 -23 0 -9 15 -46 33 -80 35 -69
101 -130 162 -150 l35 -12 0 -304 c0 -281 -1 -305 -17 -310 -58 -19 -81 -33
-127 -78 -34 -34 -59 -69 -72 -103 l-19 -53 -175 -5 c-96 -3 -216 -3 -267 1
l-91 7 -12 43 c-16 56 -80 129 -126 144 -53 18 -158 9 -191 -16 -93 -69 -107
-203 -31 -290 l31 -35 -20 -27 c-16 -21 -32 -28 -71 -33 -63 -8 -125 -43 -179
-102 -72 -78 -80 -165 -24 -274 32 -64 72 -106 113 -122 24 -9 27 -16 33 -85
8 -85 2 -126 -20 -126 -8 0 -30 -14 -49 -31 -77 -67 -109 -165 -82 -246 22
-65 62 -112 112 -135 l44 -19 0 -120 c0 -84 -4 -130 -15 -156 -46 -110 27
-237 152 -263 149 -32 257 45 256 183 -1 113 -94 206 -207 207 -45 0 -48 1
-42 23 3 12 6 45 6 74 0 50 2 53 36 69 40 19 74 60 103 124 25 54 25 71 5 139
-18 62 -71 125 -120 143 l-34 12 0 102 0 102 30 5 c42 9 109 74 136 132 36 77
29 179 -20 273 -9 17 -16 33 -16 36 0 3 20 17 45 31 24 15 57 41 71 58 l27 32
296 3 297 3 11 -43 c7 -24 26 -61 43 -83 36 -46 123 -113 163 -128 16 -5 32
-20 37 -33 12 -31 68 -33 95 -4 10 11 45 32 76 46 72 33 145 107 184 189 24
49 29 73 29 130 0 60 -5 79 -33 132 -53 99 -150 182 -213 183 -17 0 -18 21
-18 299 l0 299 33 6 c83 16 174 111 219 228 27 72 21 169 -15 230 -46 78 -161
168 -217 168 -19 0 -20 6 -20 90 0 85 1 91 23 99 89 35 138 192 84 272 -56 84
-180 122 -265 82 -19 -9 -49 -36 -65 -60 -30 -42 -32 -43 -88 -43 -54 0 -57 1
-70 31 -33 82 -132 170 -206 185 l-30 6 -7 101 c-5 71 -4 103 4 105 6 2 24 15
40 28 68 58 81 200 23 271 -46 58 -106 88 -178 87 -73 0 -121 -23 -185 -88
-24 -25 -52 -46 -62 -46 -26 0 -133 -55 -193 -99 -123 -90 -145 -100 -145 -67
0 22 -77 102 -115 120 -35 17 -35 18 -35 81 0 63 0 64 35 80 55 27 110 94 124
152 11 43 10 61 -3 113 -21 80 -45 113 -104 141 -36 18 -63 23 -117 23 -90 -1
-150 -27 -196 -84 -63 -79 -112 -131 -181 -192 l-68 -60 -41 37 c-115 104
-231 109 -328 13 -19 -18 -40 -47 -47 -65 -16 -38 -18 -124 -4 -173 13 -45 7
-53 -148 -212 -69 -71 -132 -137 -139 -148 -8 -11 -18 -20 -24 -20 -10 0 -10
237 0 414 l6 109 33 11 c62 21 137 90 168 152 36 75 44 178 20 252 -20 60 -81
133 -139 166 -34 20 -144 49 -166 45 -3 -1 -26 -5 -51 -10z m157 -213 c58 -62
44 -168 -27 -210 -61 -36 -150 -10 -190 56 -58 95 22 206 140 194 35 -3 51
-11 77 -40z m1208 -181 c39 -38 30 -98 -19 -137 -31 -26 -64 -22 -97 11 -20
20 -29 39 -29 61 0 22 9 41 29 61 38 37 82 39 116 4z m-664 -205 c31 -17 52
-66 38 -93 -33 -63 -74 -84 -124 -63 -89 37 -66 166 30 166 20 0 45 -5 56 -10z
m1464 -187 c24 -23 34 -55 28 -86 -17 -85 -153 -68 -153 19 0 65 83 110 125
67z m-193 -222 c18 -17 49 -37 70 -43 l38 -11 0 -88 0 -88 -37 -10 c-85 -23
-161 -102 -184 -190 l-12 -48 -86 -6 c-47 -4 -156 -4 -243 0 l-158 6 0 83 0
82 31 11 c47 16 101 64 138 123 25 40 64 76 154 143 66 50 138 111 161 137
l40 47 28 -58 c15 -32 42 -73 60 -90z m-600 30 c31 -35 43 -70 34 -104 -16
-67 -96 -112 -155 -87 -58 24 -93 108 -66 159 39 76 134 92 187 32z m-665
-341 c44 -27 66 -73 60 -127 -6 -56 -30 -91 -74 -109 -44 -19 -84 -11 -122 25
-78 73 -49 205 50 224 45 8 54 7 86 -13z m1490 -91 c96 -36 118 -155 43 -231
-51 -50 -149 -32 -190 35 -42 68 -16 162 54 193 38 16 57 17 93 3z m628 -123
c0 -35 -23 -51 -58 -42 -19 4 -27 13 -27 29 0 32 20 48 55 45 26 -3 30 -7 30
-32z m-207 -121 c19 -27 39 -45 51 -45 26 0 31 -18 31 -110 l0 -79 -41 -13
c-61 -18 -142 -96 -170 -163 l-23 -55 -118 0 -118 0 0 140 c0 127 2 140 18
140 29 0 118 57 151 97 17 20 39 56 48 80 18 42 19 42 73 46 30 2 58 4 61 5 3
1 19 -18 37 -43z m-739 -31 c28 -63 113 -131 184 -148 l27 -6 0 -135 0 -135
-32 0 c-18 0 -49 3 -69 6 -32 5 -38 11 -48 46 -16 52 -84 120 -137 136 -98 29
-188 8 -255 -58 -128 -127 -68 -345 109 -396 68 -20 125 -12 183 25 24 15 55
44 69 64 l25 37 78 0 77 0 0 -159 0 -159 -30 -12 c-30 -12 -120 -103 -120
-121 0 -5 -21 -9 -47 -9 -41 0 -50 4 -80 39 -38 45 -77 58 -127 41 -50 -16
-67 -41 -69 -99 -2 -49 -4 -52 -105 -161 -57 -60 -111 -114 -120 -119 -16 -8
-17 37 -16 642 1 359 2 669 2 690 l2 38 241 -4 241 -4 17 -39z m-100 -390 c25
-21 31 -33 31 -66 0 -51 -43 -98 -90 -98 -22 0 -41 9 -61 29 -85 85 29 212
120 135z m1068 -1 c20 -9 44 -30 54 -47 26 -43 25 -128 -1 -171 -21 -35 -81
-65 -127 -65 -39 0 -86 34 -112 80 -71 127 56 265 186 203z m-616 -623 c25
-14 49 -62 49 -99 0 -39 -41 -86 -87 -102 -99 -32 -164 93 -92 176 26 29 38
35 71 35 21 0 48 -5 59 -10z m-468 -601 c53 -24 62 -96 18 -140 -34 -33 -57
-36 -87 -11 -51 41 -57 91 -15 133 32 32 47 35 84 18z m1087 -18 c74 -39 101
-128 64 -207 -43 -90 -169 -107 -239 -34 -27 28 -30 38 -30 95 0 71 17 103 75
143 40 27 84 28 130 3z m-1249 -437 c73 -70 28 -194 -70 -194 -85 0 -136 92
-96 170 33 64 113 75 166 24z m-22 -679 c62 -31 56 -117 -10 -151 -37 -19 -66
-13 -102 20 -37 34 -36 78 2 117 33 32 67 37 110 14z m102 -588 c21 -16 39
-51 39 -77 0 -27 -43 -70 -70 -70 -29 0 -80 53 -80 83 0 58 68 97 111 64z"/>
<path d="M5716 9360 c-34 -11 -73 -45 -92 -82 -22 -42 -18 -130 7 -162 48 -61
144 -76 197 -31 126 106 38 322 -112 275z"/>
<path d="M4445 9296 c-37 -16 -90 -68 -111 -108 -42 -81 -22 -212 41 -267 20
-17 42 -31 50 -31 16 0 32 -27 30 -50 -1 -8 -3 -108 -3 -222 l-2 -208 -27 -6
c-114 -26 -203 -149 -203 -279 0 -63 35 -169 71 -212 35 -44 95 -87 137 -98
31 -9 38 -16 47 -52 12 -52 15 -54 64 -63 l40 -7 7 58 6 57 43 11 c61 15 137
87 176 167 42 84 46 184 10 252 -36 69 -98 129 -167 163 l-64 30 0 230 c0 145
4 229 10 229 5 0 29 17 52 38 122 110 101 288 -44 363 -43 22 -119 24 -163 5z
m126 -129 c72 -56 33 -157 -62 -157 -34 0 -42 5 -60 33 -25 39 -19 94 12 120
24 20 86 22 110 4z m17 -921 c55 -29 77 -63 76 -121 0 -86 -57 -145 -139 -145
-109 0 -178 127 -119 217 36 56 123 79 182 49z"/>
<path d="M4015 9130 c3 -5 11 -10 16 -10 6 0 7 5 4 10 -3 6 -11 10 -16 10 -6
0 -7 -4 -4 -10z"/>
<path d="M4090 9092 c0 -5 10 -17 22 -28 l21 -19 -18 28 c-18 28 -25 33 -25
19z"/>
<path d="M4017 8953 c-3 -3 -2 -16 4 -30 14 -37 11 -88 -8 -132 -13 -31 -25
-42 -57 -52 -25 -8 -34 -14 -24 -16 9 -3 26 1 37 6 16 9 21 7 26 -9 4 -12 0
-26 -9 -36 -11 -11 -15 -27 -11 -55 3 -22 1 -39 -5 -39 -6 0 -10 -4 -10 -9 0
-4 17 -3 38 3 52 15 154 119 169 171 19 64 27 139 14 131 -6 -4 -11 -17 -12
-29 0 -15 -2 -17 -6 -7 -8 19 -24 35 -45 43 -10 3 -18 16 -18 27 0 13 -7 20
-20 20 -11 0 -20 4 -20 8 0 9 -35 13 -43 5z"/>
<path d="M3350 8912 c-69 -34 -77 -130 -18 -198 31 -35 34 -36 87 -32 44 4 59
10 78 32 32 37 32 116 1 162 -38 55 -86 67 -148 36z"/>
<path d="M6711 8879 c-27 -26 -41 -60 -41 -104 0 -25 8 -40 35 -64 75 -66 195
-26 195 64 0 41 -32 110 -55 119 -38 14 -111 6 -134 -15z"/>
<path d="M2912 8743 c-46 -22 -67 -53 -87 -126 -14 -54 -15 -73 -5 -120 13
-64 44 -111 70 -104 25 6 39 -38 37 -121 -1 -56 3 -76 16 -89 11 -11 17 -13
17 -5 0 7 -4 12 -10 12 -16 0 -12 47 4 53 10 4 13 1 9 -9 -3 -9 2 -14 16 -14
12 0 21 5 21 10 0 6 9 10 20 10 15 0 20 -7 20 -25 0 -14 4 -25 10 -25 9 0 8
23 -5 127 -3 30 -1 33 32 42 19 5 46 22 60 38 35 39 73 122 72 158 0 24 -2 26
-8 11 -7 -17 -9 -16 -19 10 -7 16 -23 34 -35 39 -17 8 -22 19 -23 52 -1 30 2
41 10 36 6 -4 5 1 -3 11 -8 9 -20 15 -28 12 -8 -3 -12 -2 -9 3 19 30 -127 41
-182 14z m98 -78 c14 -7 25 -17 25 -22 0 -4 9 -20 19 -35 35 -52 2 -129 -56
-131 -21 -1 -36 -8 -40 -19 -17 -42 -90 3 -103 63 -8 33 29 119 50 119 8 0 15
5 15 11 0 6 17 8 48 4 45 -6 46 -5 22 9 -31 19 -14 20 20 1z m-53 -372 c-3
-10 -5 -4 -5 12 0 17 2 24 5 18 2 -7 2 -21 0 -30z"/>
<path d="M3146 8675 c4 -8 10 -12 15 -9 11 6 2 24 -11 24 -5 0 -7 -7 -4 -15z"/>
<path d="M3852 8579 c-12 -5 -30 -5 -40 -2 -16 6 -15 5 1 -12 18 -17 18 -36
11 -329 -3 -171 -8 -313 -10 -315 -2 -2 -121 -5 -264 -5 l-260 -1 0 23 c0 71
-101 182 -211 229 -24 10 -25 10 -21 -18 3 -17 0 -29 -7 -29 -6 0 -11 -8 -11
-19 0 -10 -9 -21 -20 -24 -28 -7 -15 -36 19 -43 46 -10 58 -16 43 -21 -7 -3
-30 2 -52 11 -21 8 -42 12 -44 7 -3 -5 9 -12 28 -15 36 -7 87 -47 105 -83 27
-54 0 -142 -53 -174 -41 -25 -102 -24 -145 2 -34 21 -90 23 -103 4 -5 -6 -12
-5 -20 4 -9 9 -9 12 -1 7 7 -4 17 2 22 13 14 26 14 31 -4 31 -9 0 -15 9 -15
25 0 15 6 25 14 25 19 0 27 -14 28 -50 1 -17 4 -30 8 -30 13 0 19 26 9 41 -13
21 -11 65 6 105 8 19 10 32 5 29 -6 -4 -10 18 -10 53 0 51 -3 60 -20 65 -11 3
-20 13 -20 22 0 10 5 13 12 9 7 -4 8 -3 4 4 -5 8 0 12 12 12 11 0 33 7 48 15
38 19 18 19 -37 0 -24 -9 -63 -34 -86 -57 -45 -44 -62 -80 -34 -72 10 4 9 1
-4 -8 -11 -7 -20 -24 -20 -38 0 -22 -4 -25 -35 -25 -19 0 -58 4 -85 8 -44 6
-52 11 -62 37 -10 28 -65 70 -90 70 -22 0 -14 -16 9 -17 38 -3 40 -32 6 -109
-5 -11 -9 -27 -8 -35 6 -41 -2 -59 -31 -75 -45 -23 -93 -12 -108 24 -12 30
-11 112 2 112 16 0 6 54 -14 71 -25 21 -39 17 -66 -19 -46 -63 -56 -157 -23
-221 22 -45 64 -81 92 -81 17 0 19 -7 16 -91 l-3 -92 -47 -14 c-33 -9 -57 -25
-82 -55 -19 -22 -33 -45 -30 -49 3 -5 1 -9 -4 -9 -6 0 -17 -19 -25 -43 -18
-54 -7 -141 26 -207 25 -50 103 -110 143 -110 33 0 37 -17 29 -115 -6 -79 -8
-85 -29 -85 -28 0 -108 -50 -148 -93 -42 -45 -78 -127 -85 -192 -15 -144 100
-317 235 -355 68 -19 153 -12 209 15 88 44 203 189 203 258 0 16 10 17 103 15
l102 -3 3 -137 3 -137 -40 -20 c-50 -26 -114 -100 -129 -149 -37 -123 14 -248
122 -304 61 -31 176 -23 241 17 171 106 165 336 -12 433 l-63 34 0 134 0 134
109 0 109 0 23 -36 c36 -60 120 -82 234 -64 41 7 207 11 414 10 l345 0 108
-113 108 -112 0 -487 0 -488 68 0 67 0 -3 533 -3 532 -133 133 -134 132 -205
0 c-154 0 -208 3 -214 13 -9 13 -6 1140 3 1170 3 10 9 17 14 15 15 -6 656
-644 731 -728 l76 -85 6 -859 c5 -639 10 -862 18 -873 8 -9 28 -13 63 -11 l51
3 -3 905 -3 904 -77 86 c-89 98 -465 475 -699 700 l-162 155 0 318 c-1 275 -3
317 -16 317 -8 0 -15 4 -15 9 0 13 -43 19 -68 10z m-702 -474 c0 -19 -11 -24
-43 -18 -33 6 -36 30 -4 35 30 5 47 -1 47 -17z m-870 -75 c0 -5 -5 -10 -11
-10 -5 0 -7 5 -4 10 3 6 8 10 11 10 2 0 4 -4 4 -10z m426 -247 c11 -52 36
-101 68 -131 38 -35 98 -72 118 -72 19 0 28 -59 28 -182 0 -62 -4 -90 -12 -92
-7 -3 -67 -7 -134 -10 l-120 -5 -17 55 c-9 30 -28 71 -42 92 -25 38 -88 82
-118 82 -13 0 -16 18 -19 101 l-3 101 31 13 c18 7 36 25 43 44 13 31 13 31 92
31 78 0 79 0 85 -27z m864 -8 c189 0 244 -3 243 -12 -8 -41 -22 -954 -17
-1082 l7 -154 -39 6 c-21 4 -53 7 -71 7 l-32 0 6 53 c3 28 0 70 -6 93 -14 52
-74 122 -125 145 -46 21 -139 25 -183 8 -57 -21 -119 -98 -133 -164 l-6 -30
-82 -3 -82 -3 0 261 0 260 93 0 93 0 32 -46 c76 -107 235 -125 333 -37 109 99
115 253 15 356 -35 36 -54 47 -100 58 -116 26 -228 -31 -275 -140 -20 -46 -24
-50 -64 -56 -23 -4 -60 -5 -82 -3 l-40 3 -3 132 -3 133 63 28 c38 17 78 45
101 71 41 46 79 119 70 134 -3 5 5 3 18 -4 18 -10 86 -13 269 -14z m-630 -41
c10 -10 10 -14 2 -14 -7 0 -12 5 -12 11 0 8 -4 8 -15 -1 -17 -14 -35 -5 -35
16 0 18 36 11 60 -12z m-516 -344 c57 -21 84 -121 49 -180 -19 -34 -52 -50
-97 -50 -49 0 -106 64 -106 120 0 56 17 87 59 104 43 18 61 19 95 6z m1097
-59 c50 -51 34 -134 -31 -161 -62 -26 -130 22 -130 91 0 53 9 69 44 85 50 22
84 17 117 -15z m-623 -167 c22 -6 22 -6 22 -233 0 -124 -3 -242 -6 -261 l-6
-35 -107 3 -108 3 -22 39 c-28 50 -102 115 -163 143 l-48 22 0 92 0 92 43 19
c42 19 87 58 114 100 15 21 22 22 137 22 66 0 131 -3 144 -6z m606 -465 c38
-45 36 -99 -5 -133 -50 -43 -101 -33 -138 28 -28 45 -27 59 10 101 25 28 38
35 69 35 30 0 44 -6 64 -31z m-1081 -23 c54 -23 89 -69 94 -123 8 -90 -42
-162 -119 -170 -91 -9 -164 71 -155 170 5 56 32 90 92 118 48 22 48 22 88 5z
m629 -631 c53 -49 48 -112 -11 -152 -55 -37 -96 -29 -134 27 -64 93 63 202
145 125z"/>
<path d="M3425 8561 c-28 -9 -85 -40 -85 -47 0 -3 6 -2 13 2 6 4 3 -3 -8 -14
-57 -60 -65 -81 -66 -159 -1 -82 9 -110 57 -162 49 -55 125 -80 190 -63 67 18
128 64 153 115 29 59 29 162 1 217 -40 79 -175 138 -255 111z m133 -157 c31
-36 29 -79 -7 -115 -32 -32 -62 -36 -107 -16 -29 12 -34 20 -41 67 -12 84 97
129 155 64z"/>
<path d="M2290 8056 c0 -2 7 -7 16 -10 8 -3 12 -2 9 4 -6 10 -25 14 -25 6z"/>
<path d="M2920 8011 c0 -5 9 -7 20 -4 11 3 20 7 20 9 0 2 -9 4 -20 4 -11 0
-20 -4 -20 -9z"/>
<path d="M4150 7118 c-50 -14 -95 -52 -127 -106 -23 -39 -28 -58 -28 -122 0
-91 27 -148 93 -194 37 -26 54 -31 115 -34 65 -3 77 0 125 28 79 46 132 139
132 230 -1 135 -164 240 -310 198z m135 -154 c36 -39 34 -96 -4 -135 -37 -37
-79 -38 -120 -3 -42 35 -44 98 -5 138 37 36 95 36 129 0z"/>
<path d="M5905 7098 c-92 -47 -125 -103 -125 -211 0 -65 4 -79 33 -127 43 -73
112 -110 202 -110 189 0 290 201 187 370 -55 90 -200 129 -297 78z m171 -152
c50 -50 42 -108 -22 -142 -41 -22 -75 -10 -104 38 -27 45 -25 84 5 113 36 37
79 33 121 -9z"/>
<path d="M2034 7046 c-68 -30 -101 -113 -69 -172 25 -48 59 -66 119 -66 47 0
53 3 88 42 45 51 51 103 17 151 -39 55 -95 71 -155 45z"/>
<path d="M8071 6728 c-59 -30 -81 -63 -87 -129 -15 -159 147 -247 259 -141 64
60 83 140 48 198 -50 82 -143 113 -220 72z"/>
<path d="M5798 6506 c-58 -21 -87 -43 -118 -92 -36 -57 -45 -110 -29 -163 14
-46 73 -121 95 -121 12 0 14 -100 16 -667 l3 -668 65 0 65 0 5 650 5 649 30 6
c98 21 155 94 155 198 0 165 -138 263 -292 208z m137 -131 c39 -38 30 -98 -19
-137 -30 -25 -58 -22 -88 10 -27 28 -31 39 -29 85 3 64 88 91 136 42z"/>
<path d="M3907 6275 c-52 -20 -95 -51 -112 -84 -7 -15 -15 -60 -16 -99 -2 -70
-1 -72 41 -127 53 -68 64 -75 132 -75 64 0 102 21 141 78 73 104 69 199 -10
274 -51 48 -105 59 -176 33z m78 -91 c45 -18 54 -103 15 -139 -50 -45 -116 58
-80 126 11 19 35 24 65 13z"/>
<path d="M3462 6128 c-47 -22 -72 -65 -72 -122 0 -39 19 -68 64 -95 46 -29 59
-27 106 17 39 38 40 40 40 109 0 57 -4 73 -20 88 -29 26 -68 27 -118 3z"/>
<path d="M3465 5792 c-32 -16 -45 -42 -45 -90 0 -51 25 -74 88 -80 75 -7 127
24 159 95 36 79 30 86 -85 87 -58 1 -102 -4 -117 -12z"/>
<path d="M4034 5786 c-124 -39 -194 -142 -180 -264 8 -69 25 -109 66 -156 109
-123 311 -102 380 40 19 39 24 66 24 129 1 70 -3 87 -29 133 -30 56 -83 100
-144 120 -42 15 -65 14 -117 -2z m127 -167 c41 -43 40 -99 0 -140 -41 -41 -83
-39 -127 5 -45 45 -47 95 -5 137 42 41 92 40 132 -2z"/>
<path d="M7535 5475 c-113 -40 -137 -155 -52 -241 73 -72 166 -69 234 9 36 41
58 106 47 140 -10 35 -65 86 -104 97 -47 13 -77 12 -125 -5z"/>
<path d="M7115 5363 c-49 -12 -102 -93 -125 -190 -28 -122 37 -244 146 -275
85 -23 195 39 240 136 44 94 26 170 -59 263 -60 65 -121 85 -202 66z m129
-168 c32 -29 35 -76 6 -105 -23 -23 -95 -27 -121 -7 -24 18 -40 54 -32 74 22
65 97 84 147 38z"/>
<path d="M6984 4726 c-44 -20 -64 -53 -64 -106 0 -85 57 -144 139 -144 110 0
176 110 118 195 -39 58 -130 84 -193 55z"/>
<path d="M3150 4353 l-175 -3 0 -1174 0 -1173 110 -7 c61 -3 156 -6 213 -6
l102 0 1 538 c1 295 4 645 8 777 l6 240 34 -60 c19 -33 62 -107 96 -165 35
-58 95 -161 135 -230 40 -69 119 -195 175 -280 56 -85 123 -192 149 -236 27
-45 66 -101 87 -125 l39 -44 31 35 c68 78 375 570 579 928 l105 184 5 -779 5
-778 53 0 c28 1 126 2 217 3 l165 2 0 1178 0 1179 -219 -1 -220 -1 -16 -35
c-9 -19 -76 -134 -148 -255 -213 -359 -378 -640 -473 -804 -80 -140 -89 -151
-98 -130 -5 13 -46 87 -91 164 -45 77 -103 181 -130 230 -27 50 -127 221 -223
380 -97 160 -195 327 -219 373 l-44 82 -42 -2 c-23 -1 -121 -4 -217 -5z"/>
<path d="M5720 3198 c0 -640 3 -1172 6 -1183 5 -20 12 -20 826 -17 452 1 823
4 824 5 2 2 4 99 4 217 l1 215 -610 -2 -611 -1 -1 401 c-1 221 -2 655 -3 964
l-1 563 -217 0 -218 0 0 -1162z"/>
<path d="M6694 4066 c-34 -15 -66 -55 -90 -112 -14 -34 -14 -41 1 -80 37 -98
151 -141 245 -91 112 59 105 213 -13 271 -57 29 -97 32 -143 12z"/>
</g>
</svg>
